<svg width="26" height="24" viewBox="0 0 26 24" fill="none" xmlns="http://www.w3.org/2000/svg">
<g clip-path="url(#clip0_2012_2)">
<path d="M8 1.00014C10.4 1.80014 12.3333 6.33347 13 8.50014L16 5.5C17.5 4 22 4 24 5.5C26 7 24.5 9 24 11.5C23.6 13.5 19.1667 16.3333 17 17.5L10 23C9.33333 22.1667 7.8 20.3 7 19.5C6.2 18.7 3 12.1667 1.5 9V3.00014C2.66667 2.00014 5.6 0.200142 8 1.00014Z" fill="white"/>
<path d="M3.02588 4.87825C3.08426 4.87825 3.17743 4.72608 3.21911 4.67397C3.28744 4.58856 3.44372 4.5825 3.56004 4.55665C3.69354 4.52698 3.84312 4.52581 3.97963 4.50558C4.05155 4.49493 4.11077 4.45589 4.18253 4.45589C4.22779 4.45589 4.44832 4.3224 4.36748 4.28198" stroke="#FF0404" stroke-width="3" stroke-linecap="round"/>
<path d="M3.57275 3.61117C3.8026 3.61117 4.01747 3.52425 4.24632 3.49937C4.5606 3.46521 4.87907 3.51207 5.19317 3.48143C5.4189 3.45941 5.57436 3.41408 5.68454 3.19986C5.6962 3.17718 5.80262 3.0225 5.77839 2.99558C5.75155 2.96575 5.59458 2.99051 5.56031 2.99558C5.50317 3.00405 5.4299 3.0007 5.37536 3.01629C5.36182 3.02015 5.32421 3.06166 5.32843 3.06045C5.56769 2.99209 5.75647 2.91553 6.0158 2.91553C6.33796 2.91553 6.61625 2.97144 6.92676 3.05217C7.09732 3.09652 7.25708 3.16232 7.41813 3.23298C7.53551 3.28449 7.66619 3.30964 7.77009 3.38757C8.03246 3.58434 8.17034 3.84554 8.31805 4.13291C8.52407 4.53372 8.72361 4.92187 8.9019 5.33786C9.1146 5.83417 9.35101 6.3082 9.59064 6.79127C10.0391 7.69521 10.2378 8.72693 10.3553 9.72292C10.4208 10.2783 10.4513 10.841 10.5416 11.393C10.5809 11.6331 10.6534 11.8895 10.6534 12.1328" stroke="#FF0404" stroke-width="3" stroke-linecap="round"/>
<path d="M8.4917 3.85964C8.59924 3.85331 8.59372 3.85051 8.69046 3.87896C8.77698 3.90441 8.87905 3.93282 8.92648 4.00871C8.9877 4.10666 9.02454 4.25922 9.04932 4.36895C9.09254 4.56036 9.15638 4.74291 9.19287 4.93347C9.24932 5.22829 9.35979 5.53448 9.46063 5.81683C9.61181 6.24013 9.72184 6.67703 9.80984 7.11703C9.94968 7.81623 9.98213 8.53867 10.0431 9.24813C10.0737 9.60415 10.1314 9.96176 10.1314 10.3192" stroke="#FF0404" stroke-width="3" stroke-linecap="round"/>
<path d="M9.73389 4.70435C9.84921 4.70435 9.9755 4.97528 10.0182 5.06459C10.134 5.30668 10.1531 5.59691 10.1756 5.86099C10.2479 6.71118 10.2238 7.56811 10.3205 8.41722C10.37 8.85201 10.4104 9.27471 10.4351 9.71189C10.4466 9.91765 10.4879 10.1249 10.4047 10.3192" stroke="#FF0404" stroke-width="3" stroke-linecap="round"/>
<path d="M14.4297 10.6919C14.6231 10.6677 14.7888 10.331 14.8658 10.1839C14.9336 10.0546 15.0401 9.95374 15.0881 9.80989C15.1398 9.65462 15.208 9.50628 15.262 9.35027C15.3598 9.06769 15.402 8.78729 15.5725 8.53592C15.6595 8.40772 15.7138 8.27596 15.8265 8.16325C15.9737 8.01608 16.1469 7.87838 16.3179 7.76022C16.8312 7.40555 17.2377 6.91213 17.8099 6.65464C18.2189 6.47059 18.681 6.41832 19.1143 6.33166C19.5111 6.25229 19.9155 6.24978 20.3068 6.35651C20.4248 6.38869 20.5445 6.38761 20.6643 6.40758C20.7701 6.42521 20.8754 6.46459 20.9831 6.46831C21.168 6.47468 21.3592 6.55919 21.5435 6.59253C21.8196 6.64246 22.2105 6.71204 22.3302 6.99556C22.3989 7.15824 22.4341 7.33576 22.4931 7.50211C22.5767 7.73763 22.671 7.97813 22.7388 8.21846C22.8556 8.63263 22.9674 9.11606 22.8879 9.54764C22.856 9.72084 22.8387 9.91047 22.7774 10.0763C22.6979 10.2914 22.54 10.4688 22.3606 10.6118C21.773 11.0804 21.1338 11.4753 20.5111 11.8954C20.3579 11.9988 20.2335 12.1374 20.0818 12.2419C19.9374 12.3414 19.7958 12.4346 19.6581 12.5442C19.4089 12.7423 19.1382 12.9237 18.8713 13.0963C18.3849 13.4108 17.884 13.7064 17.3751 13.9824C16.8085 14.2896 16.3017 14.5428 15.6471 14.5428" stroke="#FF0404" stroke-width="3" stroke-linecap="round"/>
<path d="M18.4046 11.0396C18.5586 10.9883 18.6962 10.9136 18.8435 10.8464C19.2094 10.6795 19.6005 10.582 19.9643 10.4061C20.2886 10.2493 20.6246 10.0791 20.8587 9.79739C21.0076 9.61818 21.0965 9.4074 21.1996 9.20112C21.4563 8.68784 21.6572 8.13155 21.7282 7.55587C21.747 7.40408 21.7726 7.24445 21.7572 7.09072C21.7454 6.97249 21.6349 6.8393 21.5723 6.7429C21.4332 6.52895 21.1616 6.28697 20.9194 6.20046C20.4639 6.03778 19.9668 6.04587 19.4867 6.04587C19.2829 6.04587 19.0782 6.03533 18.8767 6.0652C18.6111 6.10453 18.3815 6.17922 18.1258 6.26947C17.3343 6.54881 16.6103 7.09348 16.1548 7.80293C15.6917 8.52415 15.4541 9.34882 15.15 10.1425C14.9463 10.6739 14.7337 11.1952 14.5537 11.7353" stroke="#FF0404" stroke-width="3" stroke-linecap="round"/>
<path d="M15.5476 11.5614C15.5285 11.5824 15.4549 11.6938 15.4731 11.6746C15.6803 11.4565 15.8197 11.1517 15.97 10.8961C16.2002 10.5046 16.441 10.1182 16.7043 9.74777C17.1038 9.18546 17.5386 8.60121 18.1094 8.19913C18.4423 7.96461 18.9053 7.76094 19.324 7.83199C19.676 7.89173 19.7131 8.22581 19.7312 8.51797C19.7772 9.26547 19.6383 9.91897 19.2771 10.5787C18.8283 11.3983 18.2167 12.1185 17.4248 12.6228C17.1646 12.7885 16.8856 12.935 16.587 13.0176C16.456 13.0538 16.2426 13.116 16.1163 13.0272C15.8237 12.8218 16.0732 12.1222 16.1439 11.8596" stroke="#FF0404" stroke-width="3" stroke-linecap="round"/>
<path d="M3.16158 4.75848C3.15513 4.823 2.99457 4.68787 2.97111 4.66826C2.9208 4.6262 2.8335 4.58662 2.8335 4.51242C2.8335 4.42713 2.90772 4.42487 2.96883 4.38939C3.16572 4.27506 3.35504 4.14304 3.54707 4.0203C4.09408 3.67066 4.61346 3.27518 5.19112 2.97591C5.30634 2.91621 5.43117 2.89177 5.55885 2.87611C5.77438 2.84968 5.99244 2.82653 6.20954 2.81961C6.3737 2.81438 6.58257 2.81621 6.7331 2.89434C6.89466 2.97819 6.98366 3.12708 7.06574 3.28211" stroke="#FF0404" stroke-width="3" stroke-linecap="round"/>
<path d="M2.68317 5.31189C2.68317 5.48119 2.62305 5.64793 2.62305 5.82297C2.62305 6.14462 2.64475 6.42364 2.75833 6.72654C3.13439 7.72935 3.62839 8.66848 4.08112 9.64101C4.43199 10.3947 4.8568 11.1054 5.22352 11.8507C5.38508 12.179 5.56051 12.5076 5.74963 12.821C5.93643 13.1306 6.05791 13.4664 6.23064 13.7831C6.50972 14.2947 6.76143 14.777 6.96887 15.3246C7.08256 15.6248 7.19317 15.9271 7.31292 16.2249C7.36043 16.343 7.37866 16.5533 7.52337 16.4954" stroke="#FF0404" stroke-width="3" stroke-linecap="round"/>
<path d="M4.39697 10.8135C4.39697 11.1046 4.47686 11.4068 4.59572 11.672C4.7127 11.9329 4.91166 12.1511 5.0283 12.4135C5.19775 12.7948 5.46761 13.1416 5.65295 13.5192C5.81887 13.8572 5.96291 14.2096 6.10891 14.5564C6.27824 14.9585 6.49435 15.3109 6.70517 15.6904C7.04964 16.3105 7.45054 16.8904 7.82586 17.4909C8.04531 17.842 8.25622 18.1987 8.46888 18.5531C8.69495 18.9299 8.89212 19.3207 9.11524 19.6972C9.28891 19.9902 9.4392 20.2883 9.62632 20.569C9.71499 20.702 9.74433 20.8476 9.8234 20.9899C9.89977 21.1274 9.98155 21.2611 10.0489 21.3958" stroke="#FF0404" stroke-width="3" stroke-linecap="round"/>
<path d="M21.5327 11.4448C21.5327 11.7122 21.2999 11.9896 21.0817 12.1229C20.4517 12.5079 19.8455 12.9645 19.1577 13.2486C18.9143 13.3491 18.6484 13.4254 18.4194 13.5559C18.2169 13.6714 18.0275 13.8099 17.8232 13.9234C17.4191 14.1478 17.1055 14.5316 16.7259 14.7952C15.9732 15.3179 15.1586 15.7545 14.4143 16.2917C13.9033 16.6606 13.4449 16.9906 13.0865 17.5176C12.7859 17.9597 12.5479 18.429 12.3316 18.9156C12.1769 19.2636 11.9626 19.6129 11.732 19.916C11.6608 20.0096 11.5984 20.1049 11.5199 20.1932C11.5067 20.2081 11.377 20.3903 11.3713 20.3903C11.3435 20.3903 11.5112 20.0854 11.5149 20.0797C11.6942 19.7992 11.9047 19.5322 12.1212 19.2796C12.4778 18.8635 12.9661 18.6074 13.3888 18.2692C13.8088 17.9332 14.3047 17.7068 14.7083 17.3439C15.3592 16.7586 15.9394 16.1055 16.6023 15.5334C16.9629 15.2222 17.342 14.9196 17.7213 14.6315C18.1411 14.3127 18.6102 14.0702 19.0357 13.7597C19.3655 13.5191 19.7047 13.292 20.0161 13.0282C20.285 12.8003 19.8938 13.1235 19.8324 13.1735C19.0631 13.7996 18.2436 14.3222 17.399 14.842C16.8347 15.1892 16.2733 15.5409 15.7087 15.8875C15.1827 16.2105 14.6344 16.509 14.1371 16.8763C13.5639 17.2995 13.1214 17.8744 12.7542 18.4796C12.5289 18.851 12.273 19.2322 11.9425 19.5168C11.7207 19.7078 11.4951 19.9603 11.3863 20.2383C11.3793 20.2561 11.2999 20.4299 11.2961 20.4254C11.2037 20.3146 11.2811 19.8746 11.2811 19.739C11.2811 19.461 11.2738 19.1827 11.2978 18.9055C11.3455 18.3526 11.3129 17.7992 11.3546 17.247C11.4072 16.5484 11.6032 15.8483 11.9024 15.2161C12.2621 14.4559 12.7258 13.7443 13.4306 13.2687C13.8858 12.9615 14.3404 12.6619 14.7784 12.33C14.8002 12.3135 15.0876 12.0404 14.9839 12.016C14.7549 11.9621 14.5284 11.9075 14.3041 11.834C13.9914 11.7314 13.7121 11.5254 13.4289 11.3613C13.0055 11.116 12.7705 10.7718 12.497 10.3692C12.482 10.3472 12.3243 10.0831 12.3032 10.1053C12.2528 10.1586 12.2481 10.295 12.2364 10.3592C12.1855 10.6393 12.1499 10.9241 12.1596 11.2093C12.1828 11.8944 12.5163 12.4856 12.9045 13.0315C13.2403 13.5038 13.7179 13.9786 13.8916 14.543C14.0141 14.9413 14.0207 15.3715 14.1053 15.7789C14.1263 15.88 14.1638 15.9918 14.1638 16.0963C14.1638 16.1735 13.9617 16.1036 13.93 16.0979C12.5328 15.8508 11.0955 15.7275 9.71777 15.3831" stroke="#FF0404" stroke-width="3" stroke-linecap="round"/>
<path d="M7.10264 5.19165C6.92805 5.24621 6.76211 5.36244 6.59324 5.43383C6.20219 5.59915 5.80132 5.73578 5.42912 5.94323C5.27027 6.03177 5.05589 6.13592 4.92806 6.27226C4.85136 6.35408 4.94195 6.2625 4.96481 6.23385C5.31885 5.79005 5.64056 5.27361 6.1974 5.06806C6.22633 5.05738 6.50628 4.96018 6.52142 5.03966C6.55941 5.23909 6.34583 5.60931 6.27089 5.77622C5.94661 6.49848 5.43729 7.0826 4.96481 7.70695C4.88704 7.80972 4.96173 7.76291 5.02995 7.71697C5.31529 7.5248 5.58009 7.28735 5.82996 7.05224C5.9084 6.97843 7.00304 5.90851 6.71516 5.76953C6.52147 5.67603 6.19756 5.73397 5.99364 5.73112C5.55387 5.72497 5.1232 5.68867 4.6909 5.60586C4.40182 5.55048 4.11593 5.47984 3.82741 5.42214C3.71157 5.39897 3.81778 5.59628 3.83242 5.64594C3.95383 6.05766 4.08026 6.46537 4.25498 6.85849C4.48353 7.37273 4.79324 7.83565 5.09508 8.30821C5.61053 9.11521 6.08952 9.89649 6.38112 10.8135C6.57428 11.4209 6.80951 12.0016 7.08928 12.5739C7.33403 13.0745 7.44997 13.6233 7.68721 14.1271C7.87775 14.5318 8.11838 14.8966 8.37198 15.2629C8.52927 15.4901 8.66811 15.7357 8.84632 15.9476C8.9288 16.0457 8.9465 15.9297 8.96991 15.8491C9.04794 15.5803 9.10825 15.3097 9.14695 15.0324C9.28441 14.0472 9.12616 13.1921 8.74277 12.2732C8.25724 11.1096 7.50221 10.0839 7.04586 8.90614C6.73801 8.11162 6.5936 7.25698 6.56819 6.40755C6.56699 6.36755 6.6485 5.43436 6.71182 5.4689C6.85746 5.54834 6.94218 5.95479 6.98239 6.08186C7.14996 6.61136 7.26903 7.15526 7.43 7.68691C7.63297 8.35728 7.86118 9.02149 8.11478 9.67443C8.34866 10.2766 8.62613 10.8624 8.83296 11.4749C9.16769 12.4662 9.32619 13.4937 9.56784 14.5079C9.70814 15.0968 9.84592 15.6467 9.83841 16.255C9.8343 16.5873 9.72426 16.904 9.71815 17.2337C9.71749 17.2697 9.69616 17.43 9.73151 17.4508C9.90803 17.5546 10.1206 17.5133 10.2793 17.394C10.8875 16.9368 11.0458 15.9927 11.0877 15.2862C11.1462 14.3004 10.9297 13.354 10.59 12.4336C10.2782 11.5887 9.71508 10.8788 9.38746 10.0419C9.00792 9.07233 8.77105 8.05189 8.32856 7.10568C8.06235 6.53643 7.61962 6.07528 7.34315 5.52235" stroke="#FF0404" stroke-width="3" stroke-linecap="round"/>
<path d="M22.5425 14.4295C18.6621 17.6197 14.3075 19.8736 11.2464 23.6879C11.0308 23.9307 10.6859 23.9653 10.341 23.8613C10.1254 24.0347 9.73737 24.0693 9.43557 23.8266C5.90015 20.6018 3.7875 16.8568 2.27848 12.8691C1.07126 9.67893 -1.42939 4.7203 1.07127 1.70351C2.70963 -0.307676 6.02947 -0.411699 8.65948 0.7326C11.5913 2.0156 12.7123 4.37354 13.2728 6.76616C14.4369 5.03237 16.1615 3.54134 18.8777 3.22925C22.0251 2.8825 24.7844 4.5816 25.6899 6.90487C26.7677 9.74828 24.8707 12.4877 22.5425 14.4295ZM23.6635 6.69683C22.3269 4.54693 19.0502 4.09614 16.8082 5.41382C15.0405 6.41942 14.2644 8.04917 13.5746 9.60957C13.3159 10.2337 11.9793 10.0604 11.8931 9.40153C11.5051 6.62747 11.0308 2.91717 7.15046 1.66885C5.72766 1.04468 4.6498 1.35677 3.7875 2.53574C2.01979 3.05588 1.37308 3.99212 1.89046 5.41382C1.97669 6.66215 2.40784 7.91048 2.75276 9.12413C4.17555 13.9787 6.24505 18.6253 9.90982 22.7863C12.6261 19.1801 16.4202 16.9955 20.2574 14.1868C22.7581 12.3836 25.4312 9.54023 23.6635 6.69683Z" fill="#1F1F1F"/>
</g>
<defs>
<clipPath id="clip0_2012_2">
<rect width="26" height="24" fill="white"/>
</clipPath>
</defs>
</svg>
